<svg width="208" height="41" viewBox="0 0 208 41" fill="none" xmlns="http://www.w3.org/2000/svg">
<path d="M0 3.25397V29.3942C0 32.4312 2.47235 34.9259 5.48217 34.9259C8.49199 34.9259 10.9643 32.4312 10.9643 29.3942V18.3307V12.582C10.9643 10.7923 12.4155 9.32804 14.1891 9.32804H28.2708C30.7969 9.32804 32.893 7.2672 32.893 4.66402C32.893 2.11508 30.8506 0 28.2708 0H3.22481C1.45116 0 0 1.46429 0 3.25397Z" fill="#3A00FF"/>
<path d="M15.2641 16.9207V31.4008C15.2641 34.4379 17.7364 36.9326 20.7463 36.9326C23.7561 36.9326 26.2284 34.4379 26.2284 31.4008V22.9947H29.8295C32.3556 22.9947 34.4517 20.9339 34.4517 18.3307C34.4517 15.7818 32.4093 13.6667 29.8295 13.6667H18.5426C16.7152 13.6667 15.2641 15.131 15.2641 16.9207Z" fill="#21DBC1"/>
<path d="M46.9209 6.72491H67.7209V12.5821H53.8543V18.3307H65.4636V23.9709H53.8543V34.926H46.9209V6.72491Z" fill="#070A0E"/>
<path d="M76.3204 34.9259C75.353 34.9259 74.3855 34.8175 73.5793 34.5463C72.7194 34.2751 72.0207 33.8955 71.4294 33.3532C70.8382 32.8108 70.3545 32.1601 70.032 31.4008C69.7096 30.6415 69.5483 29.7738 69.5483 28.7434C69.5483 27.6587 69.7633 26.7368 70.1395 25.9775C70.5695 25.2183 71.107 24.6217 71.8057 24.1336C72.5044 23.6455 73.3106 23.2659 74.278 22.9947C75.1917 22.7235 76.2129 22.5608 77.2341 22.3981C79.1152 22.1812 80.4052 21.9101 81.2114 21.5847C81.9638 21.3135 82.34 20.8254 82.34 20.1204C82.34 19.4696 82.1251 18.9272 81.6951 18.5476C81.2651 18.168 80.5664 17.9511 79.599 17.9511C78.5778 17.9511 77.8253 18.168 77.2878 18.6019C76.7504 19.0357 76.4279 19.6865 76.3742 20.5542H70.5158C70.5158 19.6323 70.7307 18.7103 71.1607 17.8426C71.5369 16.9749 72.1282 16.2698 72.8806 15.619C73.6331 14.9683 74.5468 14.4802 75.6754 14.1005C76.8041 13.7209 78.094 13.5582 79.6527 13.5582C81.1576 13.5582 82.4475 13.7209 83.4687 13.9921C84.4899 14.2632 85.4036 14.6971 86.1561 15.2394C87.016 15.8902 87.661 16.6495 88.0909 17.6257C88.5209 18.6019 88.7359 19.7407 88.7359 20.9881V31.1839C88.7359 31.9974 88.7897 32.6481 88.8971 33.082C89.0046 33.5159 89.1659 33.8413 89.4884 34.0582V34.3294H83.3075C83.1462 34.1124 83.0388 33.8413 82.9313 33.4616C82.8238 33.082 82.7163 32.6481 82.6625 32.1058H82.6088C82.0176 32.9735 81.2651 33.6243 80.2977 34.1124C79.0615 34.709 77.8253 34.9259 76.3204 34.9259ZM78.3628 30.8585C79.5452 30.8585 80.5127 30.5331 81.2651 29.8823C82.0176 29.2315 82.3938 28.3638 82.3938 27.2249V24.8386C81.9638 25.0556 81.4801 25.2183 80.9426 25.4352C80.4052 25.5979 79.7602 25.7606 79.1152 25.9233C77.8791 26.1944 77.0191 26.5741 76.4279 26.9537C75.8904 27.3333 75.6217 27.9299 75.6217 28.6892C75.6217 29.5026 75.8904 30.0992 76.4279 30.4246C76.9116 30.6958 77.5566 30.8585 78.3628 30.8585Z" fill="#070A0E"/>
<path d="M100.668 34.9259C97.7116 34.9259 95.4005 34.2751 93.6806 33.0278C91.9607 31.7262 91.047 29.9907 90.9395 27.7672H96.9592C97.0667 28.7434 97.4429 29.5026 98.0878 29.9907C98.7328 30.4788 99.539 30.75 100.614 30.75C101.581 30.75 102.334 30.5873 102.925 30.2619C103.463 29.9365 103.785 29.3942 103.785 28.7434C103.785 28.3095 103.624 27.9299 103.355 27.6587C103.086 27.3875 102.71 27.1706 102.226 27.0079C101.743 26.8452 101.205 26.6825 100.614 26.6283C100.023 26.5741 99.3778 26.4114 98.7328 26.3029C97.8729 26.1402 97.0129 25.9775 96.153 25.7063C95.293 25.4894 94.5406 25.164 93.8419 24.6759C93.1432 24.242 92.6057 23.6455 92.1757 22.8862C91.7457 22.127 91.5307 21.1508 91.5307 19.9577C91.5307 18.9272 91.7457 17.951 92.2295 17.1375C92.6594 16.3241 93.3044 15.619 94.1106 15.1309C94.9168 14.5886 95.8305 14.209 96.8517 13.8836C97.9266 13.6124 99.0015 13.4497 100.184 13.4497C103.033 13.4497 105.182 14.0463 106.741 15.1852C108.246 16.3241 109.106 17.8968 109.267 19.9034H103.409C103.301 18.9815 102.925 18.3307 102.388 18.0053C101.85 17.6799 101.098 17.5172 100.238 17.5172C99.4315 17.5172 98.7866 17.6799 98.2491 17.951C97.7116 18.2764 97.4429 18.7103 97.4429 19.3611C97.4429 19.7407 97.5504 20.0119 97.8191 20.2288C98.0878 20.4457 98.4103 20.6084 98.894 20.7711C99.324 20.9338 99.8615 21.0423 100.453 21.1508C101.044 21.2592 101.635 21.3677 102.28 21.4762C103.14 21.6389 104.054 21.8016 104.967 22.0727C105.881 22.2897 106.687 22.6693 107.44 23.1032C108.192 23.5913 108.783 24.242 109.267 25.0013C109.751 25.8148 109.966 26.8452 109.966 28.1468C109.966 29.2315 109.751 30.2077 109.267 31.0754C108.837 31.9431 108.192 32.5939 107.386 33.1905C106.58 33.7328 105.612 34.1666 104.484 34.4378C103.194 34.8174 101.958 34.9259 100.668 34.9259Z" fill="#070A0E"/>
<path d="M120.554 34.926C119.64 34.926 118.78 34.8175 117.974 34.6548C117.222 34.4921 116.523 34.1667 115.986 33.7871C115.394 33.3532 114.964 32.8109 114.642 32.0516C114.319 31.3466 114.158 30.4246 114.158 29.34V18.4934H111.525V14.4802H114.158V8.08073H120.393V14.4802H124.048V18.4934H120.393V27.9842C120.393 28.7977 120.608 29.2858 120.984 29.5569C121.414 29.8281 121.951 29.9366 122.596 29.9366C122.865 29.9366 123.134 29.9366 123.403 29.9366C123.671 29.9366 123.833 29.9366 123.994 29.9366V34.6548C123.725 34.709 123.295 34.8175 122.704 34.8717C122.166 34.926 121.414 34.926 120.554 34.926Z" fill="#070A0E"/>
<path d="M128.079 35.9564H130.282C131.196 35.9564 131.895 35.7937 132.271 35.414C132.701 35.0344 132.862 34.4921 132.862 33.8413C132.862 33.4074 132.755 32.8651 132.593 32.2143C132.378 31.5635 132.11 30.75 131.68 29.6653L125.767 14.1005H132.486L135.173 22.7235C135.334 23.2116 135.496 23.754 135.603 24.2963C135.764 24.8386 135.872 25.3267 136.033 25.8148C136.141 26.3571 136.302 26.8452 136.409 27.3876H136.463C136.571 26.8452 136.678 26.3571 136.839 25.8148C136.947 25.381 137.054 24.8929 137.216 24.2963C137.377 23.6997 137.484 23.2116 137.645 22.7235L140.279 14.1005H146.729L139.795 34.6005C139.419 35.7937 138.989 36.7698 138.505 37.5833C138.022 38.3968 137.484 39.0476 136.947 39.5357C136.356 40.0238 135.711 40.4034 134.958 40.6204C134.206 40.8373 133.292 40.9458 132.271 40.9458H128.132V35.9564H128.079Z" fill="#070A0E"/>
<path d="M148.449 6.0741H154.844V11.2804H148.449V6.0741ZM148.449 14.1006H154.844V34.3294H148.449V14.1006Z" fill="#070A0E"/>
<path d="M167.26 34.926C165.594 34.926 164.143 34.6548 162.799 34.1125C161.455 33.5702 160.327 32.8109 159.413 31.8889C158.499 30.9127 157.801 29.7739 157.317 28.4723C156.833 27.1707 156.564 25.7606 156.564 24.1879C156.564 22.6694 156.833 21.2593 157.317 19.9577C157.801 18.6561 158.499 17.5172 159.413 16.5411C160.327 15.5649 161.402 14.8056 162.638 14.3175C163.874 13.7752 165.271 13.504 166.83 13.504C168.281 13.504 169.571 13.7209 170.7 14.1548C171.828 14.5887 172.85 15.2395 173.71 15.9987C174.892 17.0834 175.806 18.4934 176.397 20.2289C176.988 21.9101 177.257 23.8082 177.257 25.8691H162.853C163.068 27.2249 163.551 28.3096 164.25 29.1231C165.003 29.9366 166.024 30.3162 167.367 30.3162C168.227 30.3162 168.872 30.1535 169.464 29.7739C170.001 29.3942 170.431 28.9061 170.7 28.3096H176.934C176.719 29.2315 176.343 30.0993 175.752 30.9127C175.161 31.7262 174.462 32.4855 173.548 33.0821C172.688 33.6786 171.775 34.1667 170.753 34.4379C169.679 34.7633 168.496 34.926 167.26 34.926ZM170.753 22.0728C170.646 20.8797 170.216 19.9035 169.517 19.1985C168.819 18.4934 167.959 18.1138 166.937 18.1138C165.701 18.1138 164.788 18.4934 164.143 19.1985C163.498 19.9035 163.068 20.8797 162.853 22.0728H170.753Z" fill="#070A0E"/>
<path d="M178.977 6.72491H185.426V34.926H178.977V6.72491Z" fill="#070A0E"/>
<path d="M195.907 34.9259C194.617 34.9259 193.435 34.709 192.36 34.2209C191.285 33.7328 190.371 33.0278 189.565 32.1058C188.759 31.1838 188.167 30.045 187.737 28.7434C187.307 27.4418 187.092 25.9233 187.092 24.242C187.092 22.6693 187.307 21.205 187.737 19.9034C188.167 18.6018 188.759 17.4629 189.511 16.541C190.264 15.619 191.177 14.8598 192.252 14.3717C193.327 13.8293 194.51 13.5582 195.799 13.5582C197.197 13.5582 198.326 13.8293 199.186 14.3717C200.045 14.914 200.798 15.619 201.389 16.4325H201.497V6.12828H208V34.3293H201.873V31.6177H201.819C201.228 32.6481 200.422 33.5159 199.401 34.0582C198.433 34.6547 197.251 34.9259 195.907 34.9259ZM197.573 29.828C198.917 29.828 199.938 29.2857 200.69 28.2553C201.443 27.2248 201.819 25.869 201.819 24.1878C201.819 23.3201 201.712 22.5608 201.55 21.8558C201.389 21.1508 201.12 20.5 200.744 20.0119C200.368 19.5238 199.938 19.0899 199.454 18.8188C198.971 18.5476 198.326 18.3849 197.627 18.3849C196.337 18.3849 195.37 18.9272 194.671 19.9577C193.972 21.0423 193.596 22.3981 193.596 24.1336C193.596 25.9233 193.918 27.2791 194.617 28.3095C195.316 29.3399 196.283 29.828 197.573 29.828Z" fill="#070A0E"/>
</svg>
